<?xml version="1.0" standalone="no"?><svg xmlns="http://www.w3.org/2000/svg" viewBox="0 0 1440 320"><path fill="#00BD7E" fill-opacity="1" d="M0,192L40,165.3C80,139,160,85,240,85.3C320,85,400,139,480,154.7C560,171,640,149,720,154.7C800,160,880,192,960,213.3C1040,235,1120,245,1200,245.3C1280,245,1360,235,1400,229.3L1440,224L1440,320L1400,320C1360,320,1280,320,1200,320C1120,320,1040,320,960,320C880,320,800,320,720,320C640,320,560,320,480,320C400,320,320,320,240,320C160,320,80,320,40,320L0,320Z"></path></svg>