<?xml version="1.0" standalone="no"?><svg xmlns="http://www.w3.org/2000/svg" viewBox="0 0 1440 320"><path fill="#20242c" fill-opacity="1" d="M0,96L30,128C60,160,120,224,180,245.3C240,267,300,245,360,218.7C420,192,480,160,540,170.7C600,181,660,235,720,261.3C780,288,840,288,900,250.7C960,213,1020,139,1080,138.7C1140,139,1200,213,1260,240C1320,267,1380,245,1410,234.7L1440,224L1440,320L1410,320C1380,320,1320,320,1260,320C1200,320,1140,320,1080,320C1020,320,960,320,900,320C840,320,780,320,720,320C660,320,600,320,540,320C480,320,420,320,360,320C300,320,240,320,180,320C120,320,60,320,30,320L0,320Z"></path></svg>