<?xml version="1.0" standalone="no"?><svg xmlns="http://www.w3.org/2000/svg" viewBox="0 0 1440 320"><path fill="#00BD7E" fill-opacity="1" d="M0,288L40,261.3C80,235,160,181,240,144C320,107,400,85,480,101.3C560,117,640,171,720,202.7C800,235,880,245,960,256C1040,267,1120,277,1200,256C1280,235,1360,181,1400,154.7L1440,128L1440,320L1400,320C1360,320,1280,320,1200,320C1120,320,1040,320,960,320C880,320,800,320,720,320C640,320,560,320,480,320C400,320,320,320,240,320C160,320,80,320,40,320L0,320Z"></path></svg>